<svg width="20" height="20" viewBox="0 0 20 20" fill="none" xmlns="http://www.w3.org/2000/svg">
<path fill-rule="evenodd" clip-rule="evenodd" d="M10 18C14.4183 18 18 14.4183 18 10C18 5.58172 14.4183 2 10 2C5.58172 2 2 5.58172 2 10C2 14.4183 5.58172 18 10 18ZM13.0893 8.92259C13.4148 8.59715 13.4148 8.06951 13.0893 7.74408C12.7639 7.41864 12.2363 7.41864 11.9108 7.74408L9.16675 10.4882L8.08934 9.41074C7.7639 9.08531 7.23626 9.08531 6.91083 9.41074C6.58539 9.73618 6.58539 10.2638 6.91083 10.5893L8.57749 12.2559C8.90293 12.5814 9.43057 12.5814 9.756 12.2559L13.0893 8.92259Z" fill="black"/>
</svg>
